<mxfile host="app.diagrams.net" modified="2021-08-28T09:16:10.199Z" agent="5.0 (Windows NT 10.0; Win64; x64) AppleWebKit/537.36 (KHTML, like Gecko) Chrome/92.0.4515.159 Safari/537.36" etag="1WkkK5H72EsJm-mfIvJP" version="14.9.8" type="github">
  <diagram id="oLJKFiKBngFNfd6EzUxN" name="Page-1">
    <mxGraphModel dx="1038" dy="1647" grid="1" gridSize="10" guides="1" tooltips="1" connect="1" arrows="1" fold="1" page="1" pageScale="1" pageWidth="850" pageHeight="1100" math="0" shadow="0">
      <root>
        <mxCell id="0" />
        <mxCell id="1" parent="0" />
        <mxCell id="Ocl0AgpswJDA-IJ68-me-5" style="edgeStyle=orthogonalEdgeStyle;rounded=0;orthogonalLoop=1;jettySize=auto;html=1;exitX=1;exitY=0.5;exitDx=0;exitDy=0;" edge="1" parent="1" source="Ocl0AgpswJDA-IJ68-me-1">
          <mxGeometry relative="1" as="geometry">
            <mxPoint x="460" y="80" as="targetPoint" />
          </mxGeometry>
        </mxCell>
        <mxCell id="Ocl0AgpswJDA-IJ68-me-1" value="&lt;font style=&quot;font-size: 22px&quot;&gt;Landing Page&lt;/font&gt;" style="rounded=0;whiteSpace=wrap;html=1;" vertex="1" parent="1">
          <mxGeometry x="40" y="50" width="230" height="60" as="geometry" />
        </mxCell>
        <mxCell id="Ocl0AgpswJDA-IJ68-me-11" style="edgeStyle=orthogonalEdgeStyle;rounded=0;orthogonalLoop=1;jettySize=auto;html=1;entryX=0.685;entryY=0.97;entryDx=0;entryDy=0;entryPerimeter=0;" edge="1" parent="1" source="Ocl0AgpswJDA-IJ68-me-3" target="Ocl0AgpswJDA-IJ68-me-4">
          <mxGeometry relative="1" as="geometry" />
        </mxCell>
        <mxCell id="Ocl0AgpswJDA-IJ68-me-15" style="edgeStyle=orthogonalEdgeStyle;rounded=0;orthogonalLoop=1;jettySize=auto;html=1;" edge="1" parent="1" source="Ocl0AgpswJDA-IJ68-me-3" target="Ocl0AgpswJDA-IJ68-me-9">
          <mxGeometry relative="1" as="geometry" />
        </mxCell>
        <mxCell id="Ocl0AgpswJDA-IJ68-me-54" value="" style="edgeStyle=orthogonalEdgeStyle;rounded=0;orthogonalLoop=1;jettySize=auto;html=1;" edge="1" parent="1" source="Ocl0AgpswJDA-IJ68-me-3" target="Ocl0AgpswJDA-IJ68-me-53">
          <mxGeometry relative="1" as="geometry" />
        </mxCell>
        <mxCell id="Ocl0AgpswJDA-IJ68-me-3" value="&lt;font style=&quot;font-size: 18px&quot;&gt;Logged in&amp;nbsp;&lt;/font&gt;" style="text;html=1;align=center;verticalAlign=middle;resizable=0;points=[];autosize=1;strokeColor=none;" vertex="1" parent="1">
          <mxGeometry x="425" y="150" width="100" height="20" as="geometry" />
        </mxCell>
        <mxCell id="Ocl0AgpswJDA-IJ68-me-6" value="" style="edgeStyle=orthogonalEdgeStyle;rounded=0;orthogonalLoop=1;jettySize=auto;html=1;" edge="1" parent="1" source="Ocl0AgpswJDA-IJ68-me-4" target="Ocl0AgpswJDA-IJ68-me-3">
          <mxGeometry relative="1" as="geometry">
            <Array as="points">
              <mxPoint x="460" y="120" />
              <mxPoint x="460" y="120" />
            </Array>
          </mxGeometry>
        </mxCell>
        <mxCell id="Ocl0AgpswJDA-IJ68-me-8" value="" style="edgeStyle=orthogonalEdgeStyle;rounded=0;orthogonalLoop=1;jettySize=auto;html=1;" edge="1" parent="1" source="Ocl0AgpswJDA-IJ68-me-4" target="Ocl0AgpswJDA-IJ68-me-7">
          <mxGeometry relative="1" as="geometry" />
        </mxCell>
        <mxCell id="Ocl0AgpswJDA-IJ68-me-16" style="edgeStyle=orthogonalEdgeStyle;rounded=0;orthogonalLoop=1;jettySize=auto;html=1;" edge="1" parent="1" source="Ocl0AgpswJDA-IJ68-me-4">
          <mxGeometry relative="1" as="geometry">
            <mxPoint x="570" y="150" as="targetPoint" />
            <Array as="points">
              <mxPoint x="530" y="20" />
            </Array>
          </mxGeometry>
        </mxCell>
        <mxCell id="Ocl0AgpswJDA-IJ68-me-4" value="&lt;font style=&quot;font-size: 18px&quot;&gt;General&lt;/font&gt;" style="text;html=1;align=center;verticalAlign=middle;resizable=0;points=[];autosize=1;strokeColor=none;" vertex="1" parent="1">
          <mxGeometry x="425" y="10" width="80" height="20" as="geometry" />
        </mxCell>
        <mxCell id="Ocl0AgpswJDA-IJ68-me-10" value="" style="edgeStyle=orthogonalEdgeStyle;rounded=0;orthogonalLoop=1;jettySize=auto;html=1;" edge="1" parent="1" source="Ocl0AgpswJDA-IJ68-me-7" target="Ocl0AgpswJDA-IJ68-me-9">
          <mxGeometry relative="1" as="geometry" />
        </mxCell>
        <mxCell id="Ocl0AgpswJDA-IJ68-me-68" style="edgeStyle=orthogonalEdgeStyle;rounded=0;orthogonalLoop=1;jettySize=auto;html=1;entryX=0.5;entryY=0;entryDx=0;entryDy=0;exitX=0.572;exitY=0.01;exitDx=0;exitDy=0;exitPerimeter=0;" edge="1" parent="1" source="Ocl0AgpswJDA-IJ68-me-4" target="Ocl0AgpswJDA-IJ68-me-67">
          <mxGeometry relative="1" as="geometry">
            <mxPoint x="470" as="sourcePoint" />
            <Array as="points">
              <mxPoint x="471" y="-40" />
              <mxPoint x="790" y="-40" />
            </Array>
          </mxGeometry>
        </mxCell>
        <mxCell id="Ocl0AgpswJDA-IJ68-me-7" value="Login/sign up option" style="whiteSpace=wrap;html=1;" vertex="1" parent="1">
          <mxGeometry x="560" y="-10" width="120" height="60" as="geometry" />
        </mxCell>
        <mxCell id="Ocl0AgpswJDA-IJ68-me-18" value="" style="edgeStyle=orthogonalEdgeStyle;rounded=0;orthogonalLoop=1;jettySize=auto;html=1;" edge="1" parent="1" source="Ocl0AgpswJDA-IJ68-me-9" target="Ocl0AgpswJDA-IJ68-me-17">
          <mxGeometry relative="1" as="geometry" />
        </mxCell>
        <mxCell id="Ocl0AgpswJDA-IJ68-me-9" value="Search Courses" style="whiteSpace=wrap;html=1;" vertex="1" parent="1">
          <mxGeometry x="560" y="130" width="120" height="60" as="geometry" />
        </mxCell>
        <mxCell id="Ocl0AgpswJDA-IJ68-me-12" value="Logout" style="text;html=1;align=center;verticalAlign=middle;resizable=0;points=[];autosize=1;strokeColor=none;rotation=90;" vertex="1" parent="1">
          <mxGeometry x="460" y="70" width="50" height="20" as="geometry" />
        </mxCell>
        <mxCell id="Ocl0AgpswJDA-IJ68-me-20" value="" style="edgeStyle=orthogonalEdgeStyle;rounded=0;orthogonalLoop=1;jettySize=auto;html=1;" edge="1" parent="1" source="Ocl0AgpswJDA-IJ68-me-17" target="Ocl0AgpswJDA-IJ68-me-19">
          <mxGeometry relative="1" as="geometry" />
        </mxCell>
        <mxCell id="Ocl0AgpswJDA-IJ68-me-17" value="Course Search Result" style="whiteSpace=wrap;html=1;" vertex="1" parent="1">
          <mxGeometry x="560" y="270" width="120" height="60" as="geometry" />
        </mxCell>
        <mxCell id="Ocl0AgpswJDA-IJ68-me-23" value="" style="edgeStyle=orthogonalEdgeStyle;rounded=0;orthogonalLoop=1;jettySize=auto;html=1;" edge="1" parent="1" source="Ocl0AgpswJDA-IJ68-me-19" target="Ocl0AgpswJDA-IJ68-me-22">
          <mxGeometry relative="1" as="geometry" />
        </mxCell>
        <mxCell id="Ocl0AgpswJDA-IJ68-me-19" value="&lt;font style=&quot;font-size: 18px&quot;&gt;Video&lt;br&gt;Title&lt;br&gt;Rating&lt;/font&gt;" style="whiteSpace=wrap;html=1;" vertex="1" parent="1">
          <mxGeometry x="540" y="410" width="160" height="90" as="geometry" />
        </mxCell>
        <mxCell id="Ocl0AgpswJDA-IJ68-me-25" value="" style="edgeStyle=orthogonalEdgeStyle;rounded=0;orthogonalLoop=1;jettySize=auto;html=1;" edge="1" parent="1" source="Ocl0AgpswJDA-IJ68-me-22" target="Ocl0AgpswJDA-IJ68-me-24">
          <mxGeometry relative="1" as="geometry" />
        </mxCell>
        <mxCell id="Ocl0AgpswJDA-IJ68-me-27" value="" style="edgeStyle=orthogonalEdgeStyle;rounded=0;orthogonalLoop=1;jettySize=auto;html=1;" edge="1" parent="1" source="Ocl0AgpswJDA-IJ68-me-22" target="Ocl0AgpswJDA-IJ68-me-26">
          <mxGeometry relative="1" as="geometry" />
        </mxCell>
        <mxCell id="Ocl0AgpswJDA-IJ68-me-22" value="Course Information" style="whiteSpace=wrap;html=1;" vertex="1" parent="1">
          <mxGeometry x="560" y="595" width="120" height="60" as="geometry" />
        </mxCell>
        <mxCell id="Ocl0AgpswJDA-IJ68-me-33" value="" style="edgeStyle=orthogonalEdgeStyle;rounded=0;orthogonalLoop=1;jettySize=auto;html=1;" edge="1" parent="1" source="Ocl0AgpswJDA-IJ68-me-24" target="Ocl0AgpswJDA-IJ68-me-32">
          <mxGeometry relative="1" as="geometry" />
        </mxCell>
        <mxCell id="Ocl0AgpswJDA-IJ68-me-24" value="Logged in &amp;amp;&amp;amp; Already Bought" style="whiteSpace=wrap;html=1;" vertex="1" parent="1">
          <mxGeometry x="360" y="595" width="120" height="60" as="geometry" />
        </mxCell>
        <mxCell id="Ocl0AgpswJDA-IJ68-me-31" value="" style="edgeStyle=orthogonalEdgeStyle;rounded=0;orthogonalLoop=1;jettySize=auto;html=1;" edge="1" parent="1" source="Ocl0AgpswJDA-IJ68-me-26" target="Ocl0AgpswJDA-IJ68-me-30">
          <mxGeometry relative="1" as="geometry" />
        </mxCell>
        <mxCell id="Ocl0AgpswJDA-IJ68-me-26" value="Course&lt;br&gt;About the course&lt;br&gt;Requirement&lt;br&gt;Course Content&lt;br&gt;Review" style="whiteSpace=wrap;html=1;" vertex="1" parent="1">
          <mxGeometry x="525" y="750" width="190" height="95" as="geometry" />
        </mxCell>
        <mxCell id="Ocl0AgpswJDA-IJ68-me-39" style="edgeStyle=orthogonalEdgeStyle;rounded=0;orthogonalLoop=1;jettySize=auto;html=1;exitX=0.5;exitY=1;exitDx=0;exitDy=0;" edge="1" parent="1" source="Ocl0AgpswJDA-IJ68-me-30">
          <mxGeometry relative="1" as="geometry">
            <mxPoint x="720" y="1050" as="targetPoint" />
          </mxGeometry>
        </mxCell>
        <mxCell id="Ocl0AgpswJDA-IJ68-me-30" value="Buy" style="whiteSpace=wrap;html=1;" vertex="1" parent="1">
          <mxGeometry x="660" y="940" width="120" height="60" as="geometry" />
        </mxCell>
        <mxCell id="Ocl0AgpswJDA-IJ68-me-62" style="edgeStyle=orthogonalEdgeStyle;rounded=0;orthogonalLoop=1;jettySize=auto;html=1;exitX=0;exitY=0.5;exitDx=0;exitDy=0;" edge="1" parent="1" source="Ocl0AgpswJDA-IJ68-me-32" target="Ocl0AgpswJDA-IJ68-me-63">
          <mxGeometry relative="1" as="geometry">
            <mxPoint x="80" y="625" as="targetPoint" />
          </mxGeometry>
        </mxCell>
        <mxCell id="Ocl0AgpswJDA-IJ68-me-65" style="edgeStyle=orthogonalEdgeStyle;rounded=0;orthogonalLoop=1;jettySize=auto;html=1;exitX=0.25;exitY=0;exitDx=0;exitDy=0;entryX=0;entryY=0.5;entryDx=0;entryDy=0;" edge="1" parent="1" source="Ocl0AgpswJDA-IJ68-me-32" target="Ocl0AgpswJDA-IJ68-me-55">
          <mxGeometry relative="1" as="geometry" />
        </mxCell>
        <mxCell id="Ocl0AgpswJDA-IJ68-me-66" style="edgeStyle=orthogonalEdgeStyle;rounded=0;orthogonalLoop=1;jettySize=auto;html=1;exitX=0;exitY=0;exitDx=0;exitDy=0;" edge="1" parent="1" source="Ocl0AgpswJDA-IJ68-me-32">
          <mxGeometry relative="1" as="geometry">
            <mxPoint x="160" y="110" as="targetPoint" />
          </mxGeometry>
        </mxCell>
        <mxCell id="Ocl0AgpswJDA-IJ68-me-32" value="Course Play page" style="whiteSpace=wrap;html=1;" vertex="1" parent="1">
          <mxGeometry x="160" y="595" width="120" height="60" as="geometry" />
        </mxCell>
        <mxCell id="Ocl0AgpswJDA-IJ68-me-35" style="edgeStyle=orthogonalEdgeStyle;rounded=0;orthogonalLoop=1;jettySize=auto;html=1;exitX=0.5;exitY=0;exitDx=0;exitDy=0;" edge="1" parent="1" source="Ocl0AgpswJDA-IJ68-me-34">
          <mxGeometry relative="1" as="geometry">
            <mxPoint x="620" y="880" as="targetPoint" />
          </mxGeometry>
        </mxCell>
        <mxCell id="Ocl0AgpswJDA-IJ68-me-36" style="edgeStyle=orthogonalEdgeStyle;rounded=0;orthogonalLoop=1;jettySize=auto;html=1;exitX=1;exitY=0.5;exitDx=0;exitDy=0;" edge="1" parent="1" source="Ocl0AgpswJDA-IJ68-me-37">
          <mxGeometry relative="1" as="geometry">
            <mxPoint x="660" y="975" as="targetPoint" />
            <Array as="points">
              <mxPoint x="630" y="1105" />
              <mxPoint x="630" y="975" />
            </Array>
          </mxGeometry>
        </mxCell>
        <mxCell id="Ocl0AgpswJDA-IJ68-me-38" value="" style="edgeStyle=orthogonalEdgeStyle;rounded=0;orthogonalLoop=1;jettySize=auto;html=1;" edge="1" parent="1" source="Ocl0AgpswJDA-IJ68-me-34" target="Ocl0AgpswJDA-IJ68-me-37">
          <mxGeometry relative="1" as="geometry" />
        </mxCell>
        <mxCell id="Ocl0AgpswJDA-IJ68-me-34" value="Add to Cart" style="whiteSpace=wrap;html=1;" vertex="1" parent="1">
          <mxGeometry x="470" y="950" width="120" height="50" as="geometry" />
        </mxCell>
        <mxCell id="Ocl0AgpswJDA-IJ68-me-37" value="Cart" style="whiteSpace=wrap;html=1;" vertex="1" parent="1">
          <mxGeometry x="470" y="1075" width="120" height="60" as="geometry" />
        </mxCell>
        <mxCell id="Ocl0AgpswJDA-IJ68-me-42" value="" style="edgeStyle=orthogonalEdgeStyle;rounded=0;orthogonalLoop=1;jettySize=auto;html=1;" edge="1" parent="1" source="Ocl0AgpswJDA-IJ68-me-40" target="Ocl0AgpswJDA-IJ68-me-41">
          <mxGeometry relative="1" as="geometry" />
        </mxCell>
        <mxCell id="Ocl0AgpswJDA-IJ68-me-40" value="Payment Details" style="whiteSpace=wrap;html=1;" vertex="1" parent="1">
          <mxGeometry x="660" y="1100" width="120" height="60" as="geometry" />
        </mxCell>
        <mxCell id="Ocl0AgpswJDA-IJ68-me-44" value="" style="edgeStyle=orthogonalEdgeStyle;rounded=0;orthogonalLoop=1;jettySize=auto;html=1;" edge="1" parent="1" source="Ocl0AgpswJDA-IJ68-me-41" target="Ocl0AgpswJDA-IJ68-me-43">
          <mxGeometry relative="1" as="geometry" />
        </mxCell>
        <mxCell id="Ocl0AgpswJDA-IJ68-me-41" value="Gateway" style="whiteSpace=wrap;html=1;" vertex="1" parent="1">
          <mxGeometry x="660" y="1210" width="120" height="60" as="geometry" />
        </mxCell>
        <mxCell id="Ocl0AgpswJDA-IJ68-me-46" value="" style="edgeStyle=orthogonalEdgeStyle;rounded=0;orthogonalLoop=1;jettySize=auto;html=1;" edge="1" parent="1" source="Ocl0AgpswJDA-IJ68-me-43" target="Ocl0AgpswJDA-IJ68-me-45">
          <mxGeometry relative="1" as="geometry" />
        </mxCell>
        <mxCell id="Ocl0AgpswJDA-IJ68-me-47" style="edgeStyle=orthogonalEdgeStyle;rounded=0;orthogonalLoop=1;jettySize=auto;html=1;exitX=0;exitY=0.5;exitDx=0;exitDy=0;" edge="1" parent="1" source="Ocl0AgpswJDA-IJ68-me-43">
          <mxGeometry relative="1" as="geometry">
            <mxPoint x="230" y="660" as="targetPoint" />
          </mxGeometry>
        </mxCell>
        <mxCell id="Ocl0AgpswJDA-IJ68-me-43" value="Response" style="whiteSpace=wrap;html=1;" vertex="1" parent="1">
          <mxGeometry x="660" y="1320" width="120" height="60" as="geometry" />
        </mxCell>
        <mxCell id="Ocl0AgpswJDA-IJ68-me-45" value="Fail page" style="whiteSpace=wrap;html=1;" vertex="1" parent="1">
          <mxGeometry x="470" y="1440" width="120" height="60" as="geometry" />
        </mxCell>
        <mxCell id="Ocl0AgpswJDA-IJ68-me-49" value="Fail" style="text;html=1;align=center;verticalAlign=middle;resizable=0;points=[];autosize=1;strokeColor=none;rotation=90;" vertex="1" parent="1">
          <mxGeometry x="525" y="1380" width="30" height="20" as="geometry" />
        </mxCell>
        <mxCell id="Ocl0AgpswJDA-IJ68-me-50" value="Success" style="text;html=1;align=center;verticalAlign=middle;resizable=0;points=[];autosize=1;strokeColor=none;" vertex="1" parent="1">
          <mxGeometry x="400" y="1330" width="60" height="20" as="geometry" />
        </mxCell>
        <mxCell id="Ocl0AgpswJDA-IJ68-me-52" style="edgeStyle=orthogonalEdgeStyle;rounded=0;orthogonalLoop=1;jettySize=auto;html=1;exitX=0.5;exitY=1;exitDx=0;exitDy=0;entryX=0.5;entryY=0;entryDx=0;entryDy=0;" edge="1" parent="1" source="Ocl0AgpswJDA-IJ68-me-51" target="Ocl0AgpswJDA-IJ68-me-40">
          <mxGeometry relative="1" as="geometry" />
        </mxCell>
        <mxCell id="Ocl0AgpswJDA-IJ68-me-51" value="Login" style="whiteSpace=wrap;html=1;" vertex="1" parent="1">
          <mxGeometry x="660" y="1015" width="120" height="60" as="geometry" />
        </mxCell>
        <mxCell id="Ocl0AgpswJDA-IJ68-me-56" value="" style="edgeStyle=orthogonalEdgeStyle;rounded=0;orthogonalLoop=1;jettySize=auto;html=1;" edge="1" parent="1" source="Ocl0AgpswJDA-IJ68-me-53" target="Ocl0AgpswJDA-IJ68-me-55">
          <mxGeometry relative="1" as="geometry" />
        </mxCell>
        <mxCell id="Ocl0AgpswJDA-IJ68-me-53" value="My Courses" style="whiteSpace=wrap;html=1;" vertex="1" parent="1">
          <mxGeometry x="235" y="130" width="120" height="60" as="geometry" />
        </mxCell>
        <mxCell id="Ocl0AgpswJDA-IJ68-me-58" value="" style="edgeStyle=orthogonalEdgeStyle;rounded=0;orthogonalLoop=1;jettySize=auto;html=1;" edge="1" parent="1" source="Ocl0AgpswJDA-IJ68-me-55">
          <mxGeometry relative="1" as="geometry">
            <mxPoint x="295" y="410" as="targetPoint" />
          </mxGeometry>
        </mxCell>
        <mxCell id="Ocl0AgpswJDA-IJ68-me-55" value="All bought Couse List" style="whiteSpace=wrap;html=1;" vertex="1" parent="1">
          <mxGeometry x="235" y="270" width="120" height="60" as="geometry" />
        </mxCell>
        <mxCell id="Ocl0AgpswJDA-IJ68-me-61" value="" style="edgeStyle=orthogonalEdgeStyle;rounded=0;orthogonalLoop=1;jettySize=auto;html=1;entryX=0.5;entryY=0;entryDx=0;entryDy=0;" edge="1" parent="1" source="Ocl0AgpswJDA-IJ68-me-59" target="Ocl0AgpswJDA-IJ68-me-32">
          <mxGeometry relative="1" as="geometry">
            <mxPoint x="290" y="490" as="targetPoint" />
          </mxGeometry>
        </mxCell>
        <mxCell id="Ocl0AgpswJDA-IJ68-me-59" value="Select one Couse" style="text;html=1;align=center;verticalAlign=middle;resizable=0;points=[];autosize=1;strokeColor=none;" vertex="1" parent="1">
          <mxGeometry x="235" y="410" width="110" height="20" as="geometry" />
        </mxCell>
        <mxCell id="Ocl0AgpswJDA-IJ68-me-63" value="Certificate" style="whiteSpace=wrap;html=1;" vertex="1" parent="1">
          <mxGeometry x="20" y="740" width="120" height="60" as="geometry" />
        </mxCell>
        <mxCell id="Ocl0AgpswJDA-IJ68-me-64" value="Completed" style="text;html=1;align=center;verticalAlign=middle;resizable=0;points=[];autosize=1;strokeColor=none;rotation=90;" vertex="1" parent="1">
          <mxGeometry x="65" y="660" width="70" height="20" as="geometry" />
        </mxCell>
        <mxCell id="Ocl0AgpswJDA-IJ68-me-69" style="edgeStyle=orthogonalEdgeStyle;rounded=0;orthogonalLoop=1;jettySize=auto;html=1;exitX=0.482;exitY=1.05;exitDx=0;exitDy=0;exitPerimeter=0;entryX=0;entryY=0.5;entryDx=0;entryDy=0;" edge="1" parent="1" source="Ocl0AgpswJDA-IJ68-me-3" target="Ocl0AgpswJDA-IJ68-me-67">
          <mxGeometry relative="1" as="geometry">
            <mxPoint x="720" y="270" as="targetPoint" />
          </mxGeometry>
        </mxCell>
        <mxCell id="Ocl0AgpswJDA-IJ68-me-71" value="" style="edgeStyle=orthogonalEdgeStyle;rounded=0;orthogonalLoop=1;jettySize=auto;html=1;" edge="1" parent="1" source="Ocl0AgpswJDA-IJ68-me-67" target="Ocl0AgpswJDA-IJ68-me-70">
          <mxGeometry relative="1" as="geometry" />
        </mxCell>
        <mxCell id="Ocl0AgpswJDA-IJ68-me-67" value="Blogs" style="whiteSpace=wrap;html=1;" vertex="1" parent="1">
          <mxGeometry x="730" y="170" width="120" height="60" as="geometry" />
        </mxCell>
        <mxCell id="Ocl0AgpswJDA-IJ68-me-70" value="Blog page" style="whiteSpace=wrap;html=1;" vertex="1" parent="1">
          <mxGeometry x="730" y="310" width="120" height="60" as="geometry" />
        </mxCell>
      </root>
    </mxGraphModel>
  </diagram>
</mxfile>
